# AST/ASF file generated using VICON BodyLanguage
# -----------------------------------------------
:version 1.10
:name VICON
:units
  mass 1.0
  length 0.45
  angle deg
:documentation
   .ast/.asf automatically generated from VICON data using
   VICON BodyBuilder and BodyLanguage model FoxedUp or BRILLIANT.MOD
:root
   order TX TY TZ RX RY RZ
   axis XYZ
   position 0 0 0  
   orientation 0 0 0 
:bonedata
  begin
     id 1 
     name lhipjoint
     direction 0.621036 -0.695554 0.361275 
     length 2.46325 
     axis 0 0 0  XYZ
  end
  begin
     id 2 
     name lfemur
     direction 0.34202 -0.939693 0  
     length 6.54784  
     axis 0 0 20  XYZ
    dof rx ry rz
    limits (-160.0 20.0)
           (-70.0 70.0)
           (-60.0 70.0)
  end
  begin
     id 3 
     name ltibia
     direction 0.34202 -0.939693 0   
     length 7.84737   
     axis 0 0 20   XYZ
    dof rx
    limits (-10.0 170.0)
  end
  begin
     id 4 
     name lfoot
     direction 0.0790693 -0.217241 0.97291   
     length 2.59747   
     axis -90 7.62852e-016 20   XYZ
    dof rx rz
    limits (-45.0 90.0)
           (-70.0 20.0)
  end
  begin
     id 5 
     name ltoes
     direction 1.53572e-011 -4.21898e-011 1   
     length 1.29919   
     axis -90 7.62852e-016 20   XYZ
    dof rx
    limits (-90.0 20.0)
  end
  begin
     id 6 
     name rhipjoint
     direction -0.602353 -0.708375 0.367935   
     length 2.41867  
     axis 0 0 0  XYZ 
  end
  begin
     id 7 
     name rfemur
     direction -0.34202 -0.939693 0   
     length 6.92065   
     axis 0 0 -20   XYZ
    dof rx ry rz
    limits (-160.0 20.0)
           (-70.0 70.0)
           (-70.0 60.0)
  end
  begin
     id 8 
     name rtibia
     direction -0.34202 -0.939693 0   
     length 7.88883   
     axis 0 0 -20   XYZ
    dof rx
    limits (-10.0 170.0)
 end
 begin
     id 9 
     name rfoot
     direction -0.0768692 -0.211196 0.974416   
     length 2.43714  
     axis -90 -7.62852e-016 -20   XYZ
    dof rx rz
    limits (-45.0 90.0)
           (-20.0 70.0)
  end
  begin
     id 10 
     name rtoes
     direction -1.53575e-011 -4.21933e-011 1   
     length 1.22113   
     axis -90 -7.62852e-016 -20   XYZ
    dof rx
    limits (-90.0 20.0)
  end
  begin
     id 11 
     name lowerback
     direction 0.0197937 0.98943 -0.143655   
     length 2.16931   
     axis 0 0 0   XYZ
    dof rx ry rz
    limits (-20.0 45.0)
           (-30.0 30.0)
           (-30.0 30.0)
  end
  begin
     id 12 
     name upperback
     direction -0.00183968 0.999975 0.00684288   
     length 2.17221   
     axis 0 0 0   XYZ
    dof rx ry rz
    limits (-20.0 45.0)
           (-30.0 30.0)
           (-30.0 30.0)
  end
  begin
     id 13 
     name thorax
     direction -0.00950244 0.997208 0.0740685   
     length 2.22549   
     axis 0 0 0   XYZ
    dof rx ry rz
    limits (-20.0 45.0)
           (-30.0 30.0)
           (-30.0 30.0)
  end
  begin
     id 14 
     name lowerneck
     direction 0.0218238 0.996215 0.0841425   
     length 1.77269   
     axis 0 0 0   XYZ
    dof rx ry rz
    limits (-20.0 45.0)
           (-30.0 30.0)
           (-30.0 30.0)
  end
  begin
     id 15 
     name upperneck
     direction -0.00430652 0.994214 -0.107332   
     length 1.76534   
     axis 0 0 0   XYZ
    dof rx ry rz
    limits (-20.0 45.0)
           (-30.0 30.0)
           (-30.0 30.0)
  end
  begin
     id 16
     name head
     direction -0.00328946 0.998959 -0.0454998  
     length 1.82634  
     axis 0 0 0   XYZ
    dof rx ry rz
    limits (-20.0 45.0)
           (-30.0 30.0)
           (-30.0 30.0)
  end
  begin
     id 17 
     name lclavicle
     direction 0.970962 0.239191 0.00450212  
     length 3.84872  
     axis 0 0 0   XYZ
    dof ry rz
    limits (-20.0 10.0)
           (0.0 20.0)
  end
  begin
     id 18 
     name lhumerus
     direction 1 -4.48966e-011 5.74696e-028   
     length 5.22771   
     axis 180 -30 -90   XYZ
    dof rx ry rz
    limits (-60.0 90.0)
           (-90.0 90.0)
           (-90.0 90.0)
  end
  begin
     id 19
     name lradius
     direction 1 -4.4896e-011 4.25109e-027   
     length 3.45251   
     axis 180 -30 -90   XYZ
    dof rx
    limits (-10.0 170.0)
  end
  begin
     id 20
     name lwrist
     direction 1 -4.48971e-011 1.15382e-027   
     length 1.72626   
     axis -5.52449e-016 90 90   XYZ
    dof ry
    limits (-180.0 0.0)
 end
  begin
     id 21 
     name lhand
     direction 1 -4.49034e-011 2.30765e-027   
     length 0.552119   
     axis -1.47248e-015 90 90   XYZ
    dof rx rz
    limits (-90.0 90.0)
           (-45.0 45.0)
  end
  begin
     id 22 
     name lfingers
     direction 1 -4.48951e-011 4.61529e-027   
     length 0.445133   
     axis -2.94495e-015 90 90   XYZ
    dof rx
    limits (0.0 90.0)
  end
  begin
     id 23
     name lthumb
     direction 0.707107 -6.34991e-011 0.707107   
     length 0.639124   
     axis -90 45 2.85299e-015   XYZ
    dof rx rz
    limits (-45.0 45.0)
           (-45.0 45.0)
  end
  begin
     id 24 
     name rclavicle
     direction -0.97424 0.222511 -0.0366699   
     length 3.73439  
     axis 0 0 0   XYZ 
    dof ry rz
    limits (-10.0 20.0)
           (-20.0 0.0)
  end
  begin
     id 25 
     name rhumerus
     direction -1 -4.48956e-011 -4.97258e-028  
     length 5.2398   
     axis 180 30 90   XYZ
    dof rx ry rz
    limits (-90.0 60.0)
           (-90.0 90.0)
           (-90.0 90.0)
  end
  begin
     id 26 
     name rradius
     direction -1 -4.4897e-011 -1.72611e-027   
     length 3.48042   
     axis 180 30 90   XYZ
    dof rx
    limits (-10.0 170.0)
  end
  begin
     id 27 
     name rwrist
     direction -1 -4.48976e-011 1.15382e-027   
     length 1.74021   
     axis -5.52449e-016 -90 -90   XYZ
    dof ry
    limits (-180.0 0.0)
  end
  begin
     id 28
     name rhand
     direction -1 -4.48963e-011 2.30765e-027   
     length 0.618713   
     axis -1.47248e-015 -90 -90   XYZ
    dof rx rz
    limits (-90.0 90.0)
           (-45.0 45.0)
  end
  begin
     id 29
     name rfingers
     direction -1 -4.4888e-011 4.61529e-027   
     length 0.498823   
     axis -2.94495e-015 -90 -90   XYZ
    dof rx
    limits (0.0 90.0)
  end
  begin
     id 30
     name rthumb
     direction -0.707107 -6.34968e-011 0.707107   
     length 0.716213   
     axis -90 -45 -2.85299e-015   XYZ
    dof rx rz
    limits (-45.0 45.0)
           (-45.0 45.0)
  end
:hierarchy
  begin
    root lhipjoint rhipjoint lowerback
    lhipjoint lfemur
    lfemur ltibia
    ltibia lfoot
    lfoot ltoes
    rhipjoint rfemur
    rfemur rtibia
    rtibia rfoot
    rfoot rtoes
    lowerback upperback
    upperback thorax
    thorax lowerneck lclavicle rclavicle
    lowerneck upperneck
    upperneck head
    lclavicle lhumerus
    lhumerus lradius
    lradius lwrist
    lwrist lhand lthumb
    lhand lfingers
    rclavicle rhumerus
    rhumerus rradius
    rradius rwrist
    rwrist rhand rthumb
    rhand rfingers
  end

#!OML:ASF G:\JayActor3\Patient Classification 1\Patient 1\Session 5\male.ASF
:FULLY-SPECIFIED
:DEGREES
93
root -33.8458 16.6734 -7.05655 177.792 87.9936 174.309
lowerback 2.72113 -1.95192 -0.951334
upperback 2.72857 -2.57821 0.19569
thorax 1.3243 -1.28994 0.770872
lowerneck -10.0596 -0.443592 2.75897
upperneck 6.11792 -1.04344 0.957145
head 3.78654 -0.396065 -0.239158
rclavicle 2.5519e-014 -4.17448e-015
rhumerus -35.892 -13.8414 -79.8257
rradius 24.7705
rwrist 6.553
rhand -18.0929 -4.69338
rfingers 7.12502
rthumb 8.18064 -34.515
lclavicle 2.5519e-014 -4.17448e-015
lhumerus -27.7133 -5.03433 94.3898
lradius 35.7005
lwrist 24.0562
lhand -16.3916 17.0413
lfingers 7.12502
lthumb 9.8224 46.7922
rfemur -37.24 5.99691 17.4342
rtibia 37.3832
rfoot -19.1208 -18.5523
rtoes -1.25202
lfemur 22.7721 9.78677 -20.2163
ltibia 4.45278e-014
lfoot -14.8643 14.8187
ltoes -15.0108
94
root -33.7145 16.6888 -7.02728 179.565 87.9771 176.121
lowerback 2.65312 -1.92665 -0.861958
upperback 2.70215 -2.54376 0.209916
thorax 1.33108 -1.2717 0.733169
lowerneck -10.108 -0.452042 2.73526
upperneck 6.21004 -1.05812 0.996482
head 3.829 -0.400426 -0.223323
rclavicle -2.80783e-014 8.19987e-015
rhumerus -36.0102 -13.8443 -79.8459
rradius 24.7952
rwrist 6.46322
rhand -18.0306 -4.75812
rfingers 7.12502
rthumb 8.24084 -34.5774
lclavicle -2.80783e-014 8.19987e-015
lhumerus -27.7724 -4.9036 94.3497
lradius 35.4853
lwrist 23.7167
lhand -16.307 16.9142
lfingers 7.12502
lthumb 9.90401 46.6612
rfemur -36.8473 5.9977 17.6678
rtibia 37.511
rfoot -18.7925 -18.595
rtoes -0.928907
lfemur 23.2685 9.78688 -19.8905
ltibia -8.26944e-014
lfoot -14.0936 14.7645
ltoes -16.1308
95
root -33.5813 16.7047 -6.99704 180.536 87.9846 177.131
lowerback 2.57457 -1.89821 -0.798818
upperback 2.67431 -2.5055 0.210914
thorax 1.34289 -1.25192 0.696215
lowerneck -10.1587 -0.451618 2.72487
upperneck 6.31838 -1.06279 1.03155
head 3.87779 -0.39941 -0.210665
rclavicle 1.42255e-014 3.72721e-015
rhumerus -36.1165 -13.8287 -79.8858
rradius 24.8224
rwrist 6.39163
rhand -17.9364 -4.82468
rfingers 7.12502
rthumb 8.33172 -34.6404
lclavicle 1.42255e-014 3.72721e-015
lhumerus -27.8546 -4.71388 94.2697
lradius 35.258
lwrist 23.3063
lhand -16.2518 16.7951
lfingers 7.12502
lthumb 9.95721 46.5396
rfemur -36.4244 5.96696 17.8957
rtibia 37.648
rfoot -18.5216 -18.5399
rtoes -0.689901
lfemur 23.7049 9.81477 -19.6023
ltibia 2.8625e-014
lfoot -12.9779 14.9131
ltoes -18.1017
96
root -33.4461 16.7227 -6.96559 180.532 87.9966 177.168
lowerback 2.49054 -1.871 -0.770214
upperback 2.63886 -2.46947 0.195292
thorax 1.35084 -1.23371 0.661579
lowerneck -10.1967 -0.444568 2.72908
upperneck 6.43906 -1.06031 1.06566
head 3.92859 -0.394325 -0.200391
rclavicle 1.13556e-014 -2.33572e-015
rhumerus -36.2292 -13.7884 -79.9499
rradius 24.8678
rwrist 6.32049
rhand -17.8229 -4.88122
rfingers 7.12502
rthumb 8.44122 -34.6925
lclavicle 1.13556e-014 -2.33572e-015
lhumerus -27.9768 -4.48137 94.1531
lradius 35.0307
lwrist 22.8445
lhand -16.2267 16.6729
lfingers 7.12502
lthumb 9.98143 46.4163
rfemur -35.9588 5.89657 18.1061
rtibia 37.7765
rfoot -18.3015 -18.4062
rtoes -0.497077
lfemur 24.1283 9.84586 -19.3492
ltibia -6.04305e-014
lfoot -11.7303 15.0772
ltoes -20.0797
97
root -33.3085 16.7425 -6.93286 179.978 87.9965 176.67
lowerback 2.4018 -1.84932 -0.76367
upperback 2.59987 -2.44109 0.168443
thorax 1.35844 -1.2196 0.627818
lowerneck -10.2013 -0.434787 2.74504
upperneck 6.56458 -1.05483 1.10146
head 3.97454 -0.387343 -0.19124
rclavicle -3.11098e-014 5.06901e-015
rhumerus -36.3564 -13.727 -80.0314
rradius 24.9305
rwrist 6.2489
rhand -17.7011 -4.9122
rfingers 7.12502
rthumb 8.55875 -34.7187
lclavicle -3.11098e-014 5.06901e-015
lhumerus -28.145 -4.21245 94.0041
lradius 34.8094
lwrist 22.3358
lhand -16.2358 16.5521
lfingers 7.12502
lthumb 9.9727 46.2958
rfemur -35.4307 5.78834 18.3117
rtibia 37.8774
rfoot -18.1162 -18.225
rtoes -0.300811
lfemur 24.5534 9.8625 -19.1102
ltibia -3.18055e-014
lfoot -10.3733 15.2343
ltoes -21.9078
98
root -33.1684 16.7635 -6.89884 178.878 87.9694 175.644
lowerback 2.30575 -1.83633 -0.781181
upperback 2.56057 -2.42446 0.131451
thorax 1.37064 -1.21168 0.597014
lowerneck -10.1692 -0.424734 2.77136
upperneck 6.69027 -1.04919 1.1386
head 4.01324 -0.379984 -0.183248
rclavicle 2.74323e-014 -2.68359e-015
rhumerus -36.4967 -13.6431 -80.1317
rradius 25.0171
rwrist 6.16632
rhand -17.5755 -4.92561
rfingers 7.12502
rthumb 8.68003 -34.7272
lclavicle 2.74323e-014 -2.68359e-015
lhumerus -28.3528 -3.91922 93.8262
lradius 34.5923
lwrist 21.7939
lhand -16.2836 16.4621
lfingers 7.12502
lthumb 9.92655 46.2081
rfemur -34.8386 5.64138 18.5059
rtibia 37.9355
rfoot -17.9518 -18.021
rtoes -0.0718992
lfemur 24.9834 9.85056 -18.8863
ltibia 1.90833e-014
lfoot -8.92765 15.3742
ltoes -23.482
99
root -33.0259 16.7859 -6.86342 177.742 87.9196 174.601
lowerback 2.2003 -1.83479 -0.809246
upperback 2.53226 -2.42278 0.0933254
thorax 1.40007 -1.21141 0.570532
lowerneck -10.1327 -0.41196 2.7905
upperneck 6.82104 -1.03941 1.18222
head 4.05304 -0.370313 -0.17149
rclavicle 3.10601e-016 -1.2921e-015
rhumerus -36.6164 -13.5377 -80.2492
rradius 25.1085
rwrist 6.09139
rhand -17.4589 -4.92515
rfingers 7.12502
rthumb 8.79256 -34.722
lclavicle 3.10601e-016 -1.2921e-015
lhumerus -28.5727 -3.59799 93.6209
lradius 34.3758
lwrist 21.2319
lhand -16.3422 16.3466
lfingers 7.12502
lthumb 9.87004 46.0953
rfemur -34.1829 5.47358 18.7041
rtibia 37.9406
rfoot -17.786 -17.8121
rtoes 0.20956
lfemur 25.419 9.81447 -18.6612
ltibia -4.77083e-014
lfoot -7.40187 15.5102
ltoes -24.8084
100
root -32.8811 16.8097 -6.82672 176.529 87.8481 173.508
lowerback 2.08863 -1.84451 -0.851378
upperback 2.52137 -2.43569 0.0547736
thorax 1.4517 -1.21863 0.550969
lowerneck -10.1066 -0.397499 2.7998
upperneck 6.96144 -1.02703 1.23049
head 4.09853 -0.35913 -0.156262
rclavicle 2.03754e-014 -4.37326e-015
rhumerus -36.7079 -13.4087 -80.3841
rradius 25.2078
rwrist 6.01571
rhand -17.3593 -4.90698
rfingers 7.12502
rthumb 8.88866 -34.6998
lclavicle 2.03754e-014 -4.37326e-015
lhumerus -28.7901 -3.25863 93.3915
lradius 34.155
lwrist 20.6688
lhand -16.4136 16.2253
lfingers 7.12502
lthumb 9.80111 45.9772
rfemur -33.4607 5.28824 18.9032
rtibia 37.8932
rfoot -17.6259 -17.5983
rtoes 0.575549
lfemur 25.8682 9.75613 -18.4405
ltibia 6.36111e-014
lfoot -5.79827 15.6709
ltoes -25.9017
101
root -32.7345 16.8344 -6.78884 175.324 87.7616 172.442
lowerback 1.97613 -1.8618 -0.902424
upperback 2.52174 -2.45827 0.0155327
thorax 1.51591 -1.23082 0.535402
lowerneck -10.1003 -0.383522 2.80097
upperneck 7.1249 -1.01547 1.27923
head 4.15642 -0.348035 -0.139557
rclavicle -1.98039e-014 4.07509e-015
rhumerus -36.7749 -13.2511 -80.5396
rradius 25.3173
rwrist 5.93027
rhand -17.2812 -4.89127
rfingers 7.12502
rthumb 8.96404 -34.6808
lclavicle -1.98039e-014 4.07509e-015
lhumerus -28.9995 -2.91286 93.1388
lradius 33.9174
lwrist 20.1168
lhand -16.4527 16.0525
lfingers 7.12502
lthumb 9.76341 45.8062
rfemur -32.6843 5.10113 19.1029
rtibia 37.7938
rfoot -17.4818 -17.3879
rtoes 1.04876
lfemur 26.3191 9.68382 -18.227
ltibia -2.22639e-014
lfoot -4.10247 15.8785
ltoes -26.8263
102
root -32.587 16.8593 -6.74969 174.18 87.6601 171.451
lowerback 1.87356 -1.884 -0.960853
upperback 2.52305 -2.48726 -0.0251784
thorax 1.57591 -1.24628 0.522727
lowerneck -10.1043 -0.372488 2.79232
upperneck 7.31147 -1.00791 1.33358
head 4.2249 -0.338385 -0.119469
rclavicle -4.93234e-015 5.46658e-015
rhumerus -36.8317 -13.0675 -80.7127
rradius 25.4455
rwrist 5.82294
rhand -17.2152 -4.90953
rfingers 7.12502
rthumb 9.02765 -34.6964
lclavicle -4.93234e-015 5.46658e-015
lhumerus -29.2068 -2.58471 92.8698
lradius 33.6646
lwrist 19.61
lhand -16.497 15.8768
lfingers 7.12502
lthumb 9.72065 45.6324
rfemur -31.8668 4.92398 19.3024
rtibia 37.6526
rfoot -17.3798 -17.2018
rtoes 1.62561
lfemur 26.7635 9.59793 -18.0223
ltibia -1.27222e-014
lfoot -2.27393 16.1833
ltoes -27.644
